<?xml version="1.0" encoding="utf-8"?>
<!-- Generator: Adobe Illustrator 27.5.0, SVG Export Plug-In . SVG Version: 6.00 Build 0)  -->
<svg version="1.1" xmlns="http://www.w3.org/2000/svg" xmlns:xlink="http://www.w3.org/1999/xlink" x="0px" y="0px"
	 viewBox="0 0 600 500" style="enable-background:new 0 0 600 500;" xml:space="preserve">
<g id="BACKGROUND">
	<g>
		<g>
			<rect style="fill:#ffffff;" width="600" height="500"/>
		</g>
	</g>
</g>
<g id="OBJECTS">
	<g>
		<path style="fill:#1C1C23;" d="M425.766,428.872c0,0-15.319-39.798-29.3-42.934C384.23,383.194,401,409.723,401,409.723
			s-9.875-3.796-9.456,1.66c0.903,11.745,17.371,27.506,17.371,27.506h16.851V428.872z"/>
		<path style="fill:#A2D800;" d="M432.021,438.889c0,0,32.817-51.632,53.617-60.059c14.809-6-2.936,17.745-10.851,21.83
			c0,0,11.362-3.892,8.553,2.809c-2.809,6.7-21.064,17.489-21.064,17.489s10.851-1.372,10.851,2.888
			c0,4.261-19.085,15.043-19.085,15.043H432.021z"/>
		<path style="fill:#A2D800;" d="M418.043,438.889c0,0,24.383-65.613,40.468-69.251c0,0,5.17-0.957,3.638,4.979
			c-1.532,5.936-13.277,19.021-13.277,19.021s6.921-5.593,7.879,0.535c0.957,6.128-14.517,22.38-14.517,22.38
			s7.277-2.872,6.319,4.787c-0.958,7.66-13.404,17.549-13.404,17.549H418.043z"/>
		<path style="fill:#1C1C23;" d="M97.177,399.894c-3.826,1.542,2.681,17.681,2.681,17.681s-8.745-7.596-8.936-1.213
			c-0.063,2.1,0.885,5.258,2.183,8.548c-12.089-20.609-30.104-40.142-35.509-33.697c-4.307,5.135,15.064,21.504,15.064,21.504
			s-12.837-4.531-10.723,3.772c1.787,7.021,19.787,22.4,19.787,22.4h18.135h0.376h13.411
			C113.645,438.889,105.411,396.574,97.177,399.894z"/>
	</g>
	<g>
		<path style="fill:#FFFFFF;" d="M453.115,306.891h43.76v36.69H448.74l-6.732,53.857H403.97l6.731-53.857H361.22l-6.732,53.857
			h-37.7l6.732-53.857h-44.096v-36.69h48.472l7.069-54.531h-44.096v-36.691h48.472l6.732-53.857h37.7l-6.731,53.857h49.481
			l6.732-53.857h37.699l-6.732,53.857h43.76l0.338,36.691h-48.473L453.115,306.891z M415.078,306.891l7.068-54.531h-49.48
			l-7.069,54.531H415.078z"/>
	</g>
	<g>
		<path id="XMLID_194_" style="fill:#1C1C23;" d="M360.264,144.838c0,0,3.955-5.918,9.544-1.751
			c5.999,4.473,0.99,16.454-7.736,11.17C353.712,149.194,360.264,144.838,360.264,144.838z"/>
		<path id="XMLID_201_" style="fill:#BD4C2C;" d="M352.988,145.571c0,0,5.342-7.095,11.751-2.316
			c6.88,5.129,1.752,19.937-9.678,13.117C347.485,151.852,352.988,145.571,352.988,145.571z"/>
		<path id="XMLID_380_" style="fill:#1C1C23;" d="M359.845,140.378c0,0,8.268,5.397,5.272,14.611
			c-2.995,9.21-2.148,18.244,1.362,22.84c-19.013,8.41-35.878-1.352-37.94-4.468c2.218-3.855,7.922-11.258,6.164-14.476
			c-1.757-3.217-6.245-3.589-6.163-11.544c0.131-12.702,10.111-7.516,11.081-7.695L359.845,140.378z"/>
		<polygon style="fill:#E69183;" points="305.511,366.383 314.989,381.128 323.032,361.309 319.202,353.17 		"/>
		<path style="fill:#1C1C23;" d="M322.73,360.66c-5.09,2.53-12.34,6.13-15.84,7.87l-1.38-2.15l13.69-13.21L322.73,360.66z"/>
		<polygon style="fill:#E69183;" points="312.547,398.17 308.383,422.106 327.243,423.846 332.175,400.851 		"/>
		<polygon style="fill:#1C1C23;" points="332.17,400.85 330.29,409.61 311.51,404.15 312.55,398.17 		"/>
		<path style="fill:#242847;" d="M337.73,257.481l-19.769-6.566l-47.689,53.42c0,0-6.077,5.718,1.394,16.135
			c6.764,9.431,33.592,47.732,33.592,47.732l17.405-10.787c0,0-13.641-29.788-18.662-38.617c-1.374-2.416-2.605-4.074-3.672-5.236
			c11.85-10.485,27.744-24.565,30.812-27.256L337.73,257.481z"/>
		<polygon style="fill:#1C1C23;" points="316.125,299.575 333.468,266.713 331.141,286.305 		"/>
		<path style="fill:#242847;" d="M365.02,278.44c-1.01,5.52-9.68,29.99-16.06,48.73c4.21,13.56-5.62,40.49-15.83,79.3l-21.73-3.61
			l9.71-78.39l12.27-62.48l2.48-12.64l0.29-1.48l4.08,0.78l23.41,4.48c0,0,0.64,1.2,1.28,3.61
			C365.95,260.7,366.95,267.92,365.02,278.44z"/>
		<path style="fill:#1C1C23;" d="M364.92,256.74c-12.37,4.81-23.08,5.81-31.54,5.25c-13.14-0.87-20.83-5.51-20.83-5.51l23.31-7.13
			l1.99-0.61l2.38-0.09l23.41,4.48C363.64,253.13,364.28,254.33,364.92,256.74z"/>
		<path style="fill:none;stroke:#FFFFFF;stroke-miterlimit:10;" d="M356.064,253.468c0,0-3.179,17.771-4.596,23.617
			c-2.927,12.082-13.897,47.745-13.897,47.745l-13.805,78"/>
		<path style="fill:#EA8B86;" d="M308.011,195.807c-2.964,3.953-10.168,11.546-10.168,11.546s-19.634-17.522-19.85-17.898
			c-0.51-0.888-1.044-5.318-1.818-7.587c-0.603-1.767-0.417-5.082-1.43-6.336c-0.634-0.785-2.043-0.862-2.624,1.762
			c-0.267,1.204,0.07,3.35-0.096,4.004c-0.166,0.654-1.08-0.623-2.466-2.239c-1.386-1.616-5.834-7.335-6.702-7.899
			c-1.436-0.934-2.758,1.27-0.503,4.476c1.43,2.032,3.157,4.016,4.032,5.246c-2.153-0.219-2.404,1.73-2.453,1.925
			c-0.874,0.083-1.381,0.448-1.67,0.715c-0.322,0.297-0.598,1.038-0.184,1.64c-0.232,0.256-0.439,0.522-0.537,0.757
			c-0.237,0.567-0.005,1.58,0.258,2.048c0.263,0.467,1.674,2.206,2.944,1.993c0.612,0.653,3.362,3.574,7,4.818
			c1.021,0.349,10.013,14.72,21.496,28.032c1.003,1.163,3.846,3.408,6.531,2.474c6.753-2.35,22.168-17.352,22.168-17.352
			C317.087,203.359,311.098,198.244,308.011,195.807z"/>
		<g>
			
				<path id="XMLID_387_" style="fill:none;stroke:#000000;stroke-width:0.25;stroke-linecap:round;stroke-linejoin:round;stroke-miterlimit:10;" d="
				M267.147,183.227c0,0,2.096,2.251,1.652,3.399c-0.347,0.898-1.521,0.739-2.365-0.024c-1.058-0.957-2.403-2.28-2.491-3.48"/>
			
				<path id="XMLID_384_" style="fill:none;stroke:#000000;stroke-width:0.25;stroke-linecap:round;stroke-linejoin:round;stroke-miterlimit:10;" d="
				M267.619,187.238c0,0,0.646,2.072-1.214,1.913c-1.819-0.156-3.938-3.181-4.158-3.783"/>
			
				<path id="XMLID_381_" style="fill:none;stroke:#000000;stroke-width:0.25;stroke-linecap:round;stroke-linejoin:round;stroke-miterlimit:10;" d="
				M264.946,188.568c0,0,0.481,0.673,0.109,1.159c-0.256,0.335-0.786,0.281-0.899,0.24c-1.805-0.642-2.634-2.462-2.668-2.958"/>
		</g>
		<path style="fill:#BD4C2C;" d="M341.439,180.262c0,0-13.987-3.645-17.163-2.857c-2.756,0.684-11.346,10.653-19.723,20.419
			c2.219,2.635,10.489,11.443,15.341,16.015L341.439,180.262z"/>
		<path id="XMLID_320_" style="fill:#BD4C2C;" d="M312.548,256.48c24.727,9.079,53.049-4.121,53.049-4.121
			s-4.119-9.104-4.551-10.633c-0.314-1.079,1.465-30.131,1.465-30.131s-6.267-17.633-11.365-21.75
			c-5.079-4.118-17.197-4.843-17.197-4.843s-14.688,13.56-16.374,18.168c-1.706,4.588-1.474,10.726-2.489,23.617
			C313.738,243.901,312.548,256.48,312.548,256.48z"/>
		<polygon style="fill:#1C1C23;" points="352.627,205.879 356.735,228.032 366.118,227.553 365.596,218.074 		"/>
		<g id="XMLID_280_">
			<path id="XMLID_304_" style="fill:#1C1C23;" d="M339.269,221.8l-16.089-27.414c-0.579-0.986-1.636-1.591-2.779-1.591
				l-32.365,0.005c-0.355,0-0.642,0.185-0.811,0.446l-0.002-0.002l-0.015,0.026c-0.008,0.013-0.016,0.027-0.024,0.041l-1.563,2.595
				c0,0,1.692,0.419,1.693,0.412l16.049,25.494c0.579,0.986,1.636,1.592,2.78,1.591l31.614-0.005
				c-0.019,0.117-0.031,0.204-0.031,0.204l0.704,0.705l0.824-1.41l-0.003-0.001C339.447,222.58,339.484,222.167,339.269,221.8z"/>
			<path id="XMLID_303_" style="fill:#7050D9;" d="M336.793,225.997l-32.213,0.005c-1.143,0-2.201-0.605-2.78-1.591l-16.165-27.546
				c-0.381-0.648,0.087-1.465,0.839-1.465l32.365-0.005c1.143,0,2.201,0.605,2.779,1.591l16.089,27.414
				C338.122,225.107,337.613,225.997,336.793,225.997z"/>
		</g>
		<path style="fill:#EA8B86;" d="M379.043,215.585c-8.056,1.902-14.601,2.346-19.819,2.202c0,0,2.307,5.379,2.923,7.403
			c-3.324-1.153-15.342-6.585-22.411-9.854c-0.083-1.083,0.01-2.473-5.323-6.093c-3.092-2.099-3.244-4.833-4.858-4.289
			c-1.323,0.446-0.949,2.667,0.039,4.356c0.147,0.251,0.329,0.513,0.522,0.774c-1.814-0.256-5.026-1.221-5.026-1.221
			s-3.575-1.374-5.495-1.807c-1.498-0.338-2.78,0.357-2.656,1.225c-1.505-0.64-2.562-0.912-3.727-0.613
			c-1.077,0.276-1.401,1.387-0.067,2.389c0.53,0.398,2.447,1.878,3.32,2.374c-0.526-0.203-1.044-0.426-1.544-0.497
			c-2.063-0.292-3.092,1.406-0.796,2.745c1.131,0.66,2.084,1.225,2.833,1.724c-0.168-0.044-0.341-0.091-0.494-0.123
			c-1.513-0.311-3.359,1.001-0.927,2.488c2.302,1.408,3.746,2.297,5.1,2.839c5.747,2.302,11.28,1.251,14.405,1.588
			c6.284,4.561,19.991,14.264,32.28,21.208c8.021,4.532,15.142,0.91,16.127-6.638C383.83,234.83,380.561,221.008,379.043,215.585z"
			/>
		<g>
			
				<path style="fill:none;stroke:#000000;stroke-width:0.3134;stroke-linecap:round;stroke-linejoin:round;stroke-miterlimit:10;" d="
				M317.13,208.752c0,0,3.575,1.831,5.727,2.885c2.152,1.054,5.721,2.04,5.721,2.04"/>
			
				<path style="fill:none;stroke:#000000;stroke-width:0.3134;stroke-linecap:round;stroke-linejoin:round;stroke-miterlimit:10;" d="
				M316.547,212.509c0,0,2.578,1.699,5.15,2.693c2.16,0.836,5.621,1.676,5.621,1.676"/>
			
				<path style="fill:none;stroke:#000000;stroke-width:0.3134;stroke-linecap:round;stroke-linejoin:round;stroke-miterlimit:10;" d="
				M316.956,216.403c0,0,2.199,1.16,3.92,1.756c1.721,0.596,4.921,1.44,4.921,1.44"/>
		</g>
		<path style="fill:#BD4C2C;" d="M370.202,188.17c-1.277-2.298-18.052-6.591-18.052-6.591l-6.477,9.698l6.472,13.201l6.312,18.353
			c2.114-0.279,15.367-3.991,21.798-6.257C376.568,204.25,371.417,190.357,370.202,188.17z"/>
		<path style="fill:#EA8B86;" d="M351.948,167.61c6.53-7.689,6-16.748,6-16.748c0.063-15.28-20.982-15.218-25.852-4.923
			c-3.185,6.733-4.34,18.563-2.631,22.999c1.672,4.339,5.427,6.727,10.09,6.198l-1.468,4.154c0,0-1.944-0.341-2.427-0.406
			c-2.52,4.258-3.044,16.158,5.78,15.707c8.824-0.451,12.212-12.616,12.212-12.616l-3.093-0.954L351.948,167.61z"/>
		<path id="XMLID_270_" style="fill:#1C1C23;" d="M332.851,135.329c5.14-4.799,17.45-4.09,23.528,3.37
			c4.506,0.548,6.766,5.168,4.637,14.153c-2.128,8.985-5.427,9.677-5.427,9.677s-0.293-2.06-1.638-3.978
			c-1.911-2.726-4.998-5.887-4.246-8.65c-0.799,0.502-2.051,0.936-4.042,1.072c-5.664,0.386-12.032-3.317-14.826-0.792
			c0,0-1.481,0.087-1.857-1.682l-0.004,0.001C328.977,148.499,326.869,140.914,332.851,135.329z"/>
		<path id="XMLID_141_" style="fill:#EA8B86;" d="M353.229,157.998c0,0,3.979-2.844,6.054-0.729
			c2.905,2.962-2.999,10.02-5.972,8.817C349.755,164.648,353.229,157.998,353.229,157.998z"/>
		<path style="fill:#FFFFFF;" d="M300.661,416.553c0.541-1.388,6.936-2.068,10.211-1.101c2.92,0.862,5.234,7.293,5.234,7.293
			l11.137,1.101c0,0,4.497,4.015,3.258,15.043h-50.347c0,0-3.423-8.543,4.47-13.826c3.358-2.248,8.568-2.54,12.303-2.378
			c2.614,0.114,4.506,0.45,4.536,0.494C301.534,423.287,300.055,418.108,300.661,416.553z"/>
		<path style="fill:#1C1C23;" d="M362.146,225.19c0,0,7.641,2.554,10.96,4.469c0,0-5.177-5.294-11.812-6.828L362.146,225.19z"/>
		<path style="fill:#1C1C23;" d="M339.555,175.137c0,0,4.522-0.865,7.954-4.599c0,0-1.961,5.114-8.958,7.44L339.555,175.137z"/>
		<path style="fill:#1C1C23;" d="M353.698,162.497c0.079-0.07,0.202-0.063,0.272,0.017c0.306,0.347,1.016,0.62,1.845,0.246
			c0.696-0.497,0.816-1.055,0.786-1.44c-0.041-0.546-0.388-0.989-0.708-1.145c-0.096-0.047-0.136-0.162-0.089-0.258
			c0.046-0.096,0.161-0.135,0.257-0.089c0.497,0.241,0.878,0.843,0.925,1.462c0.017,0.217-0.019,0.425-0.078,0.628
			c1-1.087,0.864-1.999,0.742-2.369c-0.168-0.506-0.544-0.827-0.81-0.844c-0.106-0.007-0.186-0.099-0.179-0.206
			c0.007-0.106,0.099-0.187,0.206-0.179c0.464,0.031,0.947,0.497,1.151,1.108c0.163,0.491,0.363,1.789-1.302,3.214
			c-0.233,0.2-0.463,0.335-0.689,0.443c-0.007,0.005-0.193,0.098-0.246,0.116c-0.934,0.334-1.736-0.022-2.099-0.434
			C353.61,162.689,353.618,162.568,353.698,162.497z"/>
		<path style="fill:#BD4C2C;" d="M278.962,438.889c0,0-0.596-2.898,0.498-3.282h51.246c0,0,0.464,0.255,0.56,1.34
			c0.096,1.085-0.549,1.942-0.549,1.942H278.962z"/>
	</g>
	<g>
		<path style="fill:#E9B798;" d="M115.263,220.87c5.054-7.066,10.375-15.657,10.375-15.657l-16.979-10.5
			c0,0-10.507,18.331-11.106,23.745c-0.958,8.649,20.553,43.672,20.553,43.672l10.213-6.74L115.263,220.87z"/>
		<polygon style="fill:#E9B798;" points="113.443,403.706 112.872,420.511 132.596,421.775 134.096,404.713 		"/>
		<polygon style="fill:#1C1C23;" points="134.1,404.71 133.43,412.35 113.11,413.54 113.44,403.71 		"/>
		<polygon style="fill:#E9B798;" points="176.542,405.552 180.532,423.511 200.83,420.064 197.715,401.118 		"/>
		<polygon style="fill:#1C1C23;" points="198.76,407.5 178.21,413.09 176.54,405.55 197.71,401.12 		"/>
		<path style="fill:#F7E035;" d="M123.404,240.287c0,0-5.745,11.011-7.723,26.585c-0.837,6.59,0.383,61.149,0.383,61.149
			s-2.216,10.229-2.425,12.319c-0.281,2.802-3.83,69.319-3.83,69.319l24.207,1.337l12.376-130.366l2.673,1.114l10.398,46.404
			l0.03,10.704l15.201,71.224l24.659-3.771l-25.469-170.717h-45.435L123.404,240.287z"/>
		<path style="fill:#1C1C23;" d="M175.33,245.31c0,0-20.86,15.18-56.12,5.6c2.1-6.61,4.19-10.62,4.19-10.62l5.05-4.7h45.43
			L175.33,245.31z"/>
		<path style="fill:#E9B798;" d="M157.756,136.141c0,0,3.752,11.702,1.401,19.46c-1.859,6.133-10.518,5.408-10.518,5.408
			l3.703,9.387l-18.103,1.532l2.246-14.373c0,0-4.432-5.82-4.431-18.985C132.055,126.579,153.211,119.528,157.756,136.141z"/>
		<path style="fill:#EA8B86;" d="M249.768,152.298c-0.535-0.723-2.136-0.431-2.902,1.436c-0.534,1.301-1.244,3.687-1.815,5.661
			c0.427-3.1,1.226-7.927,0.475-8.486c-0.722-0.537-1.883-0.383-2.649,1.484c-0.431,1.051-0.979,2.816-1.475,4.498
			c-0.02-0.51,0.02-2.711-0.076-2.822c-0.646-0.754-2.235-0.478-2.836,1.448c-0.299,0.957-0.617,3.77-0.974,4.93
			c0.126-1.39,0.172-2.524-0.163-2.848c-0.501-0.484-1.389-0.073-1.987,1.321c-0.598,1.394-1.485,4.476-1.918,5.888
			c-0.548,1.788-1.766,3.945-1.766,3.945s-3.512,3.204-2.335,6.523c0.622,1.755,10.553-2.209,13.117-4.548
			c5.09-4.644,6.238-7.66,6.238-7.66S250.529,153.327,249.768,152.298z"/>
		<path style="fill:#E9B798;" d="M247.713,160.181c-1.888,1.408-2.41,5.09-4.005,5.856c-1.596,0.766-4.995,0.144-8.92,2.346
			c-2.132,1.196-4.534,5.17-4.534,5.17l-34.167,23.982l-8.461-10.322l-14.402,12.152c0,0,14.913,16.255,20.011,17.005
			c10.749,1.582,42.522-35.799,42.522-35.799s9.396-8.605,11.949-11.541c2.553-2.936,3.503-6.115,4.221-8.274
			C252.363,159.441,249.596,158.777,247.713,160.181z"/>
		<path style="fill:#39299A;" d="M167.64,197.3l8.12,46.71c0,0-1.69,0.99-5,2.14l-2.428-4.355l-0.142,5.175
			c-8.74,2.54-24.91,4.96-47.95-0.94l4.5-21.05l-1.5-16.37l-17.89-9.51c0,0,7.221-13.312,11.496-21.047
			c1.693-3.064,3.927-4.151,4.876-4.341c0,0,35.819-8.132,45.019-9.732c0.812-0.141,4.281-0.512,6.483,2.201
			c6.468,7.968,17.267,23.689,17.267,23.689l-17.53,13.96L167.64,197.3z"/>
		<polygon style="fill:#1C1C23;" points="123.239,208.608 120.404,186.064 118.539,206.111 		"/>
		<path style="fill:#1C1C23;" d="M167.638,197.298l-8.617-12.255c0,0,10.773,24.66,10.728,24.397
			C169.703,209.177,167.638,197.298,167.638,197.298z"/>
		
			<line style="fill:none;stroke:#1C1C23;stroke-width:0.4457;stroke-linecap:round;stroke-linejoin:round;stroke-miterlimit:10;" x1="129.867" y1="273.941" x2="149.064" y2="281.745"/>
		<path style="fill:#1C1C23;" d="M160.14,136.864c0,0-0.719,1.826-6.812,1.108c0,0,0.045,4.986-5.165,5.39
			c0,0-1.078-3.174-3.593-2.575c-4.273,1.017-2.515,7.965,1.976,8.908l-1.842,10.69c0,0-7.86,1.033-8.812,0.961
			c-2.02-0.153-2.847-3.726-5.606-6.216c-13.834-12.486-4.132-20.212-4.132-20.212s-2.76-6.722,3.983-12.516
			c7.665-6.588,21.619-5.15,24.853,3.354C154.99,125.755,162.746,125.605,160.14,136.864z"/>
		<path style="fill:#F7E035;" d="M133.433,122.569c-1.385,1.056-3.566,2.681-4.195,4.595c-1.036-1.431-1.904-2.327-3.392-3.278
			c-1.535-0.981-3.381-1.581-4.969-2.472c0.893,2.93,1.302,8.275,5.548,9.781c-0.835,1.434-0.945,3.489-0.966,4.903
			c-0.021,1.454,0.786,4.334,3.876,4.334c4.255,0,5.065-7.006,2.572-9.782C134.547,127.314,133.417,125.123,133.433,122.569z"/>
		<path style="fill:#1C1C23;" d="M128.995,131.039c0,0-7.272-2.33-13.441,0.545c-7.783,3.627-8.157,11.648-9.214,20.994
			c-1.026,9.07-6.776,17.094-6.776,17.094l17.307,6.528c0,0,4.455-5.388,5.749-16.708c0.778-6.807-0.12-11.378,0.359-16.529
			c0.359-3.863,3.346-4.087,4.817-3.958c1.105,0.097,2.164-0.504,2.677-1.488c0.355-0.68,0.585-1.513,0.665-2.384
			C131.339,132.959,130.377,131.584,128.995,131.039z"/>
		<path style="fill:#FFFFFF;" d="M180.532,423.511l12.828-2.178c0,0-0.158-1.556,0.767-2.673c1.083-1.307,5.07-3.334,6.702-2.585
			c1.551,0.711,3.67,5.897,3.67,5.897s6.544-0.803,10.103-0.61c14.856,0.809,13.642,17.527,13.642,17.527h-49.952
			C178.292,438.889,176.542,428.298,180.532,423.511z"/>
		<path style="fill:#FFFFFF;" d="M107.798,438.889c0,0-2.745-12.698,5.074-18.379l19.724,1.264c0,0,5.361,5.949,2.489,17.114
			H107.798z"/>
		
			<path style="fill:none;stroke:#1C1C23;stroke-width:0.4457;stroke-linecap:round;stroke-linejoin:round;stroke-miterlimit:10;" d="
			M119.21,328.404c0,0,7.194,4.34,18.428,1.532"/>
		
			<path style="fill:none;stroke:#1C1C23;stroke-width:0.4457;stroke-linecap:round;stroke-linejoin:round;stroke-miterlimit:10;" d="
			M162.532,327.766c0,0,12.383,2.17,20.553-3.064"/>
		<path style="fill:#242847;" d="M180.19,421.971c0,0-2.986,4.776-2.24,10.043c0,0,6.335-3.374,7.682-9.37L180.19,421.971z"/>
		<path style="fill:#242847;" d="M113.645,420.56c0,0,1.333,8.2,2.578,9.828c1.245,1.628,10.197,1.529,11.537,1.29
			c1.34-0.239,3.558-7.764,3.747-9.973c0,0-3.18-1.86-8.823-2.213C117.037,419.138,113.645,420.56,113.645,420.56z"/>
		
			<path style="fill:none;stroke:#1C1C23;stroke-width:0.4457;stroke-linecap:round;stroke-linejoin:round;stroke-miterlimit:10;" d="
			M128,225.383c0,0,26.58,4.468,34.149-11.234"/>
		
			<line style="fill:none;stroke:#1C1C23;stroke-width:0.4457;stroke-linecap:round;stroke-linejoin:round;stroke-miterlimit:10;" x1="179.415" y1="436.085" x2="226.425" y2="436.085"/>
		
			<line style="fill:none;stroke:#1C1C23;stroke-width:0.4457;stroke-linecap:round;stroke-linejoin:round;stroke-miterlimit:10;" x1="133.649" y1="436.085" x2="108.372" y2="436.085"/>
	</g>
	<g>
		<g>
			<g>
				<path style="fill:#FFFFFF;stroke:#242548;stroke-width:0.5;stroke-miterlimit:10;" d="M364.574,90.672v15.418
					c0,1.662,1.34,3.001,3.001,3.001h82.146c1.662,0,3.001-1.34,3.001-3.001V90.672c0-1.662-1.34-3.001-3.001-3.001h-82.146
					C365.914,87.671,364.574,89.01,364.574,90.672z"/>
				<path style="opacity:0.3;fill:#455CF3;" d="M446.041,94.034h-53.25c-0.761,0-1.377-0.617-1.377-1.377l0,0
					c0-0.76,0.617-1.377,1.377-1.377h53.25c0.761,0,1.377,0.617,1.377,1.377l0,0C447.418,93.418,446.801,94.034,446.041,94.034z"/>
				<path style="opacity:0.3;fill:#455CF3;" d="M425.961,99.787h-33.17c-0.761,0-1.377-0.617-1.377-1.377l0,0
					c0-0.76,0.617-1.377,1.377-1.377h33.17c0.761,0,1.377,0.617,1.377,1.377l0,0C427.338,99.171,426.721,99.787,425.961,99.787z"/>
				<path style="opacity:0.3;fill:#455CF3;" d="M446.041,99.787h-14.204c-0.76,0-1.377-0.617-1.377-1.377l0,0
					c0-0.76,0.617-1.377,1.377-1.377h14.204c0.761,0,1.377,0.617,1.377,1.377l0,0C447.418,99.171,446.801,99.787,446.041,99.787z"/>
				<path style="opacity:0.3;fill:#455CF3;" d="M418.038,105.541H392.79c-0.761,0-1.377-0.617-1.377-1.377l0,0
					c0-0.761,0.617-1.377,1.377-1.377h25.248c0.761,0,1.377,0.617,1.377,1.377l0,0C419.415,104.924,418.799,105.541,418.038,105.541
					z"/>
			</g>
			<g>
				<g>
					<path style="fill:#284790;" d="M377.255,97.484L377.255,97.484c-3.757,0-6.803,3.046-6.803,6.803v0.685
						c0,0.314,0.255,0.569,0.569,0.569h12.467c0.314,0,0.569-0.255,0.569-0.569v-0.685
						C384.058,100.53,381.013,97.484,377.255,97.484z"/>
					<g>
						<path style="fill:#284790;" d="M380.06,93.842c0,1.549-1.256,2.805-2.805,2.805c-1.549,0-2.805-1.256-2.805-2.805
							c0-1.549,1.256-2.804,2.805-2.804C378.805,91.037,380.06,92.293,380.06,93.842z"/>
					</g>
				</g>
			</g>
		</g>
		<g>
			<g>
				<path style="fill:#FFFFFF;stroke:#242548;stroke-width:0.5;stroke-miterlimit:10;" d="M37.483,315.583v15.418
					c0,1.662,1.34,3.001,3.001,3.001h62.605c1.662,0,3.001-1.34,3.001-3.001v-15.418c0-1.662-1.34-3.001-3.001-3.001H40.484
					C38.823,312.582,37.483,313.922,37.483,315.583z"/>
				<path style="opacity:0.3;fill:#455CF3;" d="M99.408,318.946H65.7c-0.761,0-1.377-0.617-1.377-1.377l0,0
					c0-0.76,0.617-1.377,1.377-1.377h33.709c0.761,0,1.377,0.617,1.377,1.377l0,0C100.785,318.329,100.169,318.946,99.408,318.946z"
					/>
				<path style="opacity:0.3;fill:#455CF3;" d="M84.633,324.699H65.7c-0.761,0-1.377-0.617-1.377-1.377l0,0
					c0-0.76,0.617-1.377,1.377-1.377h18.934c0.761,0,1.377,0.617,1.377,1.377l0,0C86.01,324.082,85.394,324.699,84.633,324.699z"/>
				<path style="opacity:0.3;fill:#455CF3;" d="M99.408,324.699h-8.899c-0.76,0-1.377-0.617-1.377-1.377l0,0
					c0-0.76,0.617-1.377,1.377-1.377h8.899c0.761,0,1.377,0.617,1.377,1.377l0,0C100.785,324.082,100.169,324.699,99.408,324.699z"
					/>
				<path style="opacity:0.3;fill:#455CF3;" d="M90.947,330.453H65.7c-0.761,0-1.377-0.617-1.377-1.377l0,0
					c0-0.761,0.617-1.377,1.377-1.377h25.248c0.761,0,1.377,0.617,1.377,1.377l0,0C92.325,329.836,91.708,330.453,90.947,330.453z"
					/>
			</g>
			<g>
				<g>
					<path style="fill:#284790;" d="M50.165,322.396L50.165,322.396c-3.757,0-6.803,3.046-6.803,6.803v0.685
						c0,0.315,0.255,0.569,0.569,0.569h12.467c0.314,0,0.569-0.255,0.569-0.569v-0.685
						C56.968,325.441,53.922,322.396,50.165,322.396z"/>
					<g>
						<path style="fill:#284790;" d="M52.969,318.753c0,1.549-1.256,2.805-2.805,2.805c-1.549,0-2.805-1.256-2.805-2.805
							s1.256-2.805,2.805-2.805C51.714,315.949,52.969,317.204,52.969,318.753z"/>
					</g>
				</g>
			</g>
		</g>
		<g>
			<path style="fill:#FFFFFF;stroke:#242548;stroke-width:0.5;stroke-miterlimit:10;" d="M100.435,97.723H63.404
				c-2.714,0-4.915,2.2-4.915,4.915v15.447c0,2.714,2.2,4.915,4.915,4.915h27.542l6.93,7.596c0.496,0.544,1.396,0.106,1.274-0.62
				L97.981,123h2.454c2.714,0,4.915-2.201,4.915-4.915v-15.447C105.35,99.924,103.149,97.723,100.435,97.723z"/>
			<g>
				<path style="fill:#242548;" d="M72.94,110.362c0,1.664-1.349,3.013-3.013,3.013s-3.013-1.349-3.013-3.013
					c0-1.664,1.349-3.013,3.013-3.013S72.94,108.698,72.94,110.362z"/>
				<path style="fill:#242548;" d="M84.932,110.362c0,1.664-1.349,3.013-3.013,3.013c-1.664,0-3.013-1.349-3.013-3.013
					c0-1.664,1.349-3.013,3.013-3.013C83.584,107.349,84.932,108.698,84.932,110.362z"/>
				<path style="fill:#242548;" d="M96.924,110.362c0,1.664-1.349,3.013-3.013,3.013s-3.013-1.349-3.013-3.013
					c0-1.664,1.349-3.013,3.013-3.013S96.924,108.698,96.924,110.362z"/>
			</g>
		</g>
		<g>
			
				<ellipse transform="matrix(0.1602 -0.9871 0.9871 0.1602 294.481 605.642)" style="fill:#1C1C23;" cx="503.164" cy="129.76" rx="21.531" ry="21.531"/>
			<path style="fill:#BD4C2C;" d="M512.672,127.708l-12.303-8.09c-1.634-1.074-3.807,0.098-3.807,2.053v16.18
				c0,1.955,2.173,3.127,3.807,2.053l12.303-8.09C514.148,130.843,514.148,128.678,512.672,127.708z"/>
		</g>
		<g>
			<path style="fill:#FFFFFF;" d="M260.924,379.91h-47.54c-1.64,0-2.97-1.33-2.97-2.97V329.4c0-1.64,1.33-2.97,2.97-2.97h47.54
				c1.64,0,2.97,1.33,2.97,2.97v47.54C263.894,378.581,262.564,379.91,260.924,379.91z"/>
			<path style="opacity:0.5;fill:#455CF3;" d="M250.989,379.913h-37.604c-1.645,0-2.968-1.333-2.968-2.968v-12.157l14.274-17.989
				c1.456-1.834,4.301-1.683,5.558,0.302L250.989,379.913z"/>
			
				<path style="fill:#FFFFFF;stroke:#1C1C23;stroke-width:0.4214;stroke-linecap:round;stroke-linejoin:round;stroke-miterlimit:10;" d="
				M263.893,370.157v6.787c0,1.633-1.336,2.968-2.968,2.968H237.15l14.89-19.605c1.153-1.518,3.439-1.504,4.574,0.027
				L263.893,370.157z"/>
			<path style="opacity:0.5;fill:#455CF3;" d="M254.466,339.172c0,2.932-2.377,5.31-5.31,5.31c-2.932,0-5.31-2.377-5.31-5.31
				s2.377-5.31,5.31-5.31C252.089,333.862,254.466,336.239,254.466,339.172z"/>
			<path style="fill:none;stroke:#1C1C23;stroke-width:0.75;stroke-linecap:round;stroke-linejoin:round;stroke-miterlimit:10;" d="
				M263.893,329.396v47.549c0,1.635-1.333,2.968-2.968,2.968h-47.539c-1.645,0-2.968-1.333-2.968-2.968v-47.549
				c0-1.635,1.324-2.968,2.968-2.968h47.539C262.56,326.427,263.893,327.76,263.893,329.396z"/>
		</g>
		<g>
			
				<ellipse transform="matrix(0.9208 -0.3901 0.3901 0.9208 -11.9384 118.9692)" style="fill:#FFFFFF;" cx="286.92" cy="88.876" rx="31.333" ry="31.333"/>
			<path style="fill:#284790;" d="M286.921,56.626c-17.782,0-32.25,14.467-32.25,32.249c0,17.782,14.468,32.249,32.25,32.249
				c17.782,0,32.248-14.467,32.248-32.249C319.169,71.093,304.703,56.626,286.921,56.626z M257.434,96.339h8.901
				c0.643,4.115,1.803,7.924,3.372,11.263h-6.728C260.406,104.32,258.488,100.501,257.434,96.339z M316.407,81.411h-8.901
				c-0.643-4.115-1.803-7.924-3.372-11.263h6.728C313.435,73.431,315.353,77.249,316.407,81.411z M305.661,81.411h-9.495
				c-0.268-3.974-0.751-7.825-1.438-11.263h7.41C303.772,73.431,304.991,77.249,305.661,81.411z M306.251,88.875
				c0,1.924-0.119,3.805-0.338,5.631h-9.641c0.095-1.871,0.144-3.758,0.144-5.631c0-1.873-0.049-3.76-0.144-5.632h9.641
				C306.132,85.07,306.251,86.951,306.251,88.875z M279.396,94.507c-0.09-1.809-0.14-3.686-0.14-5.631
				c0-1.946,0.05-3.823,0.14-5.632h15.048c0.089,1.809,0.14,3.686,0.14,5.632c0,1.946-0.05,3.823-0.14,5.631H279.396z
				 M294.338,96.339c-0.283,4.238-0.797,8.037-1.465,11.263h-11.906c-0.668-3.226-1.182-7.025-1.465-11.263H294.338z
				 M267.589,88.875c0-1.925,0.119-3.805,0.338-5.632h9.641c-0.095,1.871-0.144,3.758-0.144,5.632c0,1.873,0.049,3.76,0.144,5.631
				h-9.641C267.708,92.68,267.589,90.8,267.589,88.875z M279.502,81.411c0.284-4.238,0.797-8.037,1.465-11.263h11.906
				c0.668,3.226,1.181,7.025,1.465,11.263H279.502z M294.332,68.316c-0.916-3.942-2.128-7.2-3.619-9.266
				c4.091,1.286,7.719,4.608,10.439,9.266H294.332z M292.461,68.316H281.38c1.499-6.196,3.58-9.857,5.541-9.857
				C288.882,58.458,290.963,62.12,292.461,68.316z M279.509,68.316h-6.82c2.72-4.658,6.349-7.981,10.439-9.266
				C281.637,61.116,280.425,64.374,279.509,68.316z M279.114,70.148c-0.687,3.438-1.17,7.289-1.439,11.263h-9.496
				c0.67-4.162,1.889-7.98,3.525-11.263H279.114z M266.335,81.411h-8.901c1.054-4.162,2.972-7.98,5.546-11.263h6.728
				C268.138,73.487,266.978,77.297,266.335,81.411z M266.086,83.244c-0.212,1.83-0.33,3.71-0.33,5.632
				c0,1.922,0.117,3.801,0.33,5.631h-9.051c-0.344-1.826-0.531-3.707-0.531-5.631c0-1.925,0.188-3.805,0.531-5.632H266.086z
				 M268.18,96.339h9.496c0.268,3.974,0.751,7.825,1.439,11.263h-7.41C270.069,104.32,268.85,100.501,268.18,96.339z
				 M279.509,109.435c0.916,3.942,2.128,7.2,3.62,9.266c-4.091-1.286-7.719-4.608-10.439-9.266H279.509z M281.38,109.435h11.081
				c-1.498,6.196-3.579,9.857-5.54,9.857C284.96,119.292,282.878,115.63,281.38,109.435z M294.332,109.435h6.82
				c-2.72,4.658-6.348,7.98-10.439,9.266C292.205,116.634,293.416,113.377,294.332,109.435z M294.727,107.602
				c0.687-3.438,1.17-7.289,1.438-11.263h9.495c-0.67,4.162-1.889,7.98-3.524,11.263H294.727z M307.506,96.339h8.901
				c-1.054,4.162-2.972,7.98-5.545,11.263h-6.728C305.703,104.264,306.863,100.454,307.506,96.339z M307.754,94.507
				c0.212-1.83,0.33-3.71,0.33-5.631c0-1.922-0.117-3.801-0.33-5.632h9.051c0.344,1.826,0.531,3.707,0.531,5.632
				c0,1.924-0.188,3.805-0.531,5.631H307.754z M309.312,68.316h-6.1c-1.904-3.497-4.283-6.371-6.984-8.395
				C301.297,61.554,305.789,64.482,309.312,68.316z M277.613,59.921c-2.701,2.024-5.08,4.898-6.984,8.395h-6.1
				C268.052,64.482,272.544,61.554,277.613,59.921z M264.529,109.435h6.1c1.904,3.497,4.283,6.371,6.984,8.395
				C272.544,116.196,268.052,113.269,264.529,109.435z M296.229,117.83c2.701-2.024,5.08-4.898,6.984-8.395h6.1
				C305.789,113.269,301.297,116.196,296.229,117.83z"/>
		</g>
		<g>
			<g>
				<path style="fill:#BD4C2C;" d="M248.614,131.042c-1.734-1.523-3.843-1.091-5.25-0.292c-1.374,0.781-2.125,1.982-2.125,1.982
					s-0.751-1.201-2.125-1.982c-1.407-0.799-3.516-1.231-5.25,0.292c-4.104,3.604,2.042,12.25,7.375,14.167
					C246.572,143.292,252.718,134.646,248.614,131.042z"/>
				<path style="fill:#BD4C2C;" d="M90.434,254.51c-2.01-1.765-4.454-1.265-6.084-0.338c-1.593,0.905-2.463,2.297-2.463,2.297
					s-0.87-1.392-2.463-2.297c-1.631-0.927-4.075-1.427-6.084,0.338c-4.756,4.177,2.366,14.197,8.547,16.418
					C88.068,268.707,95.19,258.687,90.434,254.51z"/>
				<path style="fill:#FFFFFF;" d="M415.731,148.962c-1.108-0.973-2.455-0.697-3.353-0.186c-0.878,0.499-1.357,1.266-1.357,1.266
					s-0.48-0.767-1.358-1.266c-0.898-0.511-2.245-0.786-3.353,0.186c-2.621,2.302,1.304,7.825,4.711,9.049
					C414.427,156.786,418.352,151.264,415.731,148.962z"/>
				<path style="fill:#FFFFFF;" d="M281.398,399.834c-1.639-1.44-3.633-1.032-4.963-0.276c-1.299,0.738-2.008,1.873-2.008,1.873
					s-0.71-1.135-2.009-1.873c-1.33-0.756-3.323-1.164-4.963,0.276c-3.879,3.407,1.93,11.58,6.972,13.392
					C279.468,411.414,285.278,403.241,281.398,399.834z"/>
				<path style="fill:#FFFFFF;" d="M513.441,278.944c-1.108-0.973-2.455-0.697-3.353-0.186c-0.878,0.499-1.357,1.266-1.357,1.266
					s-0.479-0.767-1.357-1.266c-0.899-0.511-2.246-0.786-3.353,0.186c-2.621,2.302,1.304,7.825,4.711,9.049
					C512.137,286.769,516.063,281.246,513.441,278.944z"/>
				<path style="fill:#FFFFFF;" d="M193.289,105.096c-0.658-0.578-1.459-0.414-1.993-0.111c-0.522,0.297-0.807,0.752-0.807,0.752
					s-0.285-0.456-0.807-0.752c-0.534-0.303-1.334-0.467-1.993,0.111c-1.558,1.368,0.775,4.65,2.799,5.377
					C192.514,109.746,194.847,106.464,193.289,105.096z"/>
				<path style="fill:#BD4C2C;" d="M233.929,278.843c-1.134-0.996-2.514-0.714-3.435-0.191c-0.899,0.511-1.39,1.297-1.39,1.297
					s-0.491-0.785-1.39-1.297c-0.92-0.523-2.3-0.805-3.434,0.191c-2.685,2.358,1.336,8.014,4.825,9.268
					C232.594,286.857,236.614,281.201,233.929,278.843z"/>
			</g>
			<g>
				<path style="fill:#FFFFFF;" d="M240.127,213.29h-3.958v-3.958c0-0.775-0.628-1.403-1.404-1.403
					c-0.775,0-1.404,0.628-1.404,1.403v3.958h-3.958c-0.775,0-1.404,0.628-1.404,1.404s0.628,1.404,1.404,1.404h3.958v3.958
					c0,0.775,0.628,1.404,1.404,1.404c0.775,0,1.404-0.628,1.404-1.404v-3.958h3.958c0.775,0,1.404-0.628,1.404-1.404
					S240.902,213.29,240.127,213.29z"/>
				<path style="fill:#FFFFFF;" d="M111.452,74.376h-3.958v-3.958c0-0.775-0.628-1.404-1.404-1.404
					c-0.775,0-1.403,0.628-1.403,1.404v3.958h-3.959c-0.775,0-1.403,0.628-1.403,1.404s0.628,1.403,1.403,1.403h3.959v3.959
					c0,0.775,0.628,1.403,1.403,1.403c0.775,0,1.404-0.628,1.404-1.403v-3.959h3.958c0.775,0,1.404-0.628,1.404-1.403
					S112.228,74.376,111.452,74.376z"/>
				<path style="fill:#FFFFFF;" d="M89.594,362.089h-2.645v-2.645c0-0.518-0.42-0.938-0.938-0.938c-0.518,0-0.938,0.42-0.938,0.938
					v2.645h-2.645c-0.518,0-0.938,0.42-0.938,0.938s0.42,0.938,0.938,0.938h2.645v2.645c0,0.518,0.42,0.938,0.938,0.938
					c0.518,0,0.938-0.42,0.938-0.938v-2.645h2.645c0.518,0,0.938-0.42,0.938-0.938S90.112,362.089,89.594,362.089z"/>
				<path style="fill:#FFFFFF;" d="M539.894,344.575h-2.645v-2.645c0-0.518-0.42-0.938-0.938-0.938c-0.518,0-0.938,0.42-0.938,0.938
					v2.645h-2.646c-0.518,0-0.938,0.42-0.938,0.938s0.42,0.938,0.938,0.938h2.646v2.645c0,0.518,0.42,0.938,0.938,0.938
					c0.518,0,0.938-0.42,0.938-0.938v-2.645h2.645c0.518,0,0.938-0.42,0.938-0.938S540.412,344.575,539.894,344.575z"/>
				<path style="fill:#FFFFFF;" d="M447.044,58.112h-2.646v-2.646c0-0.518-0.42-0.938-0.938-0.938c-0.518,0-0.938,0.42-0.938,0.938
					v2.646h-2.646c-0.518,0-0.938,0.42-0.938,0.938c0,0.518,0.42,0.938,0.938,0.938h2.646v2.646c0,0.518,0.42,0.938,0.938,0.938
					c0.518,0,0.938-0.42,0.938-0.938v-2.646h2.646c0.518,0,0.938-0.42,0.938-0.938C447.982,58.532,447.562,58.112,447.044,58.112z"
					/>
				<path style="fill:#FFFFFF;" d="M524.422,371.656h-6.37v-6.37c0-1.247-1.011-2.258-2.259-2.258c-1.247,0-2.259,1.011-2.259,2.258
					v6.37h-6.37c-1.247,0-2.258,1.011-2.258,2.259c0,1.247,1.011,2.259,2.258,2.259h6.37v6.37c0,1.247,1.011,2.259,2.259,2.259
					c1.247,0,2.259-1.011,2.259-2.259v-6.37h6.37c1.247,0,2.259-1.011,2.259-2.259C526.681,372.667,525.67,371.656,524.422,371.656z
					"/>
			</g>
		</g>
	</g>
	<linearGradient id="SVGID_1_" gradientUnits="userSpaceOnUse" x1="48.5" y1="440.0381" x2="551.5" y2="440.0381">
		<stop  offset="0" style="stop-color:#24307B"/>
		<stop  offset="1" style="stop-color:#1B0048"/>
	</linearGradient>
	<rect x="48.5" y="438.889" style="fill:url(#SVGID_1_);" width="503" height="2.298"/>
</g>
</svg>
