<?xml version="1.0" encoding="utf-8"?>
<!-- Generator: Adobe Illustrator 27.5.0, SVG Export Plug-In . SVG Version: 6.00 Build 0)  -->
<svg version="1.1" xmlns="http://www.w3.org/2000/svg" xmlns:xlink="http://www.w3.org/1999/xlink" x="0px" y="0px"
	 viewBox="0 0 500 500" style="enable-background:new 0 0 500 500;" xml:space="preserve">
<g id="Background_Complete">
	<g>
		<rect y="382.398" style="fill:#EBEBEB;" width="500" height="0.25"/>
		<rect x="416.779" y="398.494" style="fill:#EBEBEB;" width="33.122" height="0.25"/>
		<rect x="316.951" y="395.111" style="fill:#EBEBEB;" width="57.981" height="0.25"/>
		<rect x="361.667" y="389.208" style="fill:#EBEBEB;" width="54.111" height="0.25"/>
		<rect x="52.459" y="390.888" style="fill:#EBEBEB;" width="14.91" height="0.25"/>
		<rect x="76.273" y="390.888" style="fill:#EBEBEB;" width="64.403" height="0.25"/>
		<rect x="182" y="395.111" style="fill:#EBEBEB;" width="43.147" height="0.25"/>
		<path style="fill:#EBEBEB;" d="M237.014,337.8H43.915c-3.147,0-5.708-2.561-5.708-5.708V60.66c0-3.147,2.561-5.708,5.708-5.708
			h193.099c3.146,0,5.707,2.561,5.707,5.708v271.432C242.721,335.239,240.16,337.8,237.014,337.8z M43.915,55.203
			c-3.01,0-5.458,2.448-5.458,5.458v271.432c0,3.01,2.448,5.458,5.458,5.458h193.099c3.009,0,5.457-2.448,5.457-5.458V60.66
			c0-3.009-2.448-5.458-5.457-5.458H43.915z"/>
		<path style="fill:#EBEBEB;" d="M453.31,337.8H260.212c-3.147,0-5.707-2.561-5.707-5.708V60.66c0-3.147,2.561-5.708,5.707-5.708
			H453.31c3.148,0,5.708,2.561,5.708,5.708v271.432C459.019,335.239,456.458,337.8,453.31,337.8z M260.212,55.203
			c-3.009,0-5.457,2.448-5.457,5.458v271.432c0,3.01,2.448,5.458,5.457,5.458H453.31c3.01,0,5.458-2.448,5.458-5.458V60.66
			c0-3.009-2.448-5.458-5.458-5.458H260.212z"/>
	</g>
	<g>
		<g>
			<g>
				<rect x="64.657" y="72.842" style="fill:#FAFAFA;" width="158.388" height="90.448"/>
				<polygon style="fill:#FFFFFF;" points="214.031,163.29 173.745,72.842 143.512,72.842 183.798,163.29 				"/>
				<polygon style="fill:#FFFFFF;" points="132.735,163.29 92.449,72.842 81.421,72.842 121.707,163.29 				"/>
				<g>
					<path style="fill:#E0E0E0;" d="M57.104,68.932h173.493c0.387,0,0.704,0.317,0.704,0.704l0,0c0,0.387-0.317,0.704-0.704,0.704
						H57.104c-0.387,0-0.704-0.317-0.704-0.704l0,0C56.401,69.249,56.717,68.932,57.104,68.932z"/>
					<rect x="142.912" y="72.598" style="fill:#F0F0F0;" width="1.877" height="90.936"/>
					<rect x="141.974" y="72.598" style="fill:#E0E0E0;" width="0.938" height="90.936"/>
					
						<rect x="142.912" y="37.777" transform="matrix(6.123234e-17 -1 1 6.123234e-17 25.785 261.9166)" style="fill:#F0F0F0;" width="1.877" height="160.578"/>
					<path style="fill:#F0F0F0;" d="M63.562,162.508L63.562,162.508V73.624v-1.877h1.877h156.824h1.877v1.877v88.883h0v1.877h0l0,0
						h-1.877l0,0H65.439l0,0h-1.877l0,0l0,0V162.508z M222.263,162.508V73.624H65.439v88.883H222.263z"/>
					<rect x="62.624" y="71.747" style="fill:#E0E0E0;" width="0.938" height="92.637"/>
				</g>
			</g>
			<g>
				<polygon style="opacity:0.5;fill:#EBEBEB;" points="88.42,65.753 88.42,190.811 55.463,190.811 61.507,65.753 				"/>
				<polygon style="opacity:0.5;fill:#EBEBEB;" points="198.344,65.753 198.344,190.811 231.301,190.811 225.257,65.753 				"/>
			</g>
		</g>
		<g>
			<g>
				<rect x="277.893" y="72.842" style="fill:#FAFAFA;" width="158.388" height="90.448"/>
				<polygon style="fill:#FFFFFF;" points="427.268,163.29 386.982,72.842 356.749,72.842 397.035,163.29 				"/>
				<polygon style="fill:#FFFFFF;" points="345.971,163.29 305.685,72.842 294.658,72.842 334.944,163.29 				"/>
				<g>
					<path style="fill:#E0E0E0;" d="M270.341,68.932h173.493c0.387,0,0.704,0.317,0.704,0.704l0,0c0,0.387-0.317,0.704-0.704,0.704
						H270.341c-0.387,0-0.704-0.317-0.704-0.704l0,0C269.637,69.249,269.954,68.932,270.341,68.932z"/>
					<rect x="356.149" y="72.598" style="fill:#F0F0F0;" width="1.877" height="90.936"/>
					<rect x="355.21" y="72.598" style="fill:#E0E0E0;" width="0.938" height="90.936"/>
					
						<rect x="356.149" y="37.777" transform="matrix(6.123234e-17 -1 1 6.123234e-17 239.0213 475.153)" style="fill:#F0F0F0;" width="1.877" height="160.578"/>
					<path style="fill:#F0F0F0;" d="M276.798,162.508L276.798,162.508V73.624v-1.877h1.877h156.824h1.877v1.877v88.883h0v1.877h0
						l0,0h-1.877l0,0H278.675l0,0h-1.877l0,0l0,0V162.508z M435.499,162.508V73.624H278.675v88.883H435.499z"/>
					<rect x="275.86" y="71.747" style="fill:#E0E0E0;" width="0.938" height="92.637"/>
				</g>
			</g>
			<g>
				<polygon style="opacity:0.5;fill:#EBEBEB;" points="301.656,65.753 301.656,190.811 268.699,190.811 274.743,65.753 				"/>
				<polygon style="opacity:0.5;fill:#EBEBEB;" points="411.581,65.753 411.581,190.811 444.537,190.811 438.493,65.753 				"/>
			</g>
		</g>
		<g>
			
				<rect x="234.945" y="237.742" transform="matrix(-1 -1.224647e-16 1.224647e-16 -1 682.9658 488.0869)" style="fill:#EBEBEB;" width="213.076" height="12.603"/>
			
				<rect x="234.945" y="237.742" transform="matrix(-1 -1.224647e-16 1.224647e-16 -1 524.8594 488.0869)" style="fill:#E0E0E0;" width="54.969" height="12.603"/>
			
				<rect x="429.343" y="250.345" transform="matrix(-1 -1.224647e-16 1.224647e-16 -1 877.3638 632.7434)" style="fill:#EBEBEB;" width="18.678" height="132.053"/>
			
				<rect x="234.945" y="250.345" transform="matrix(-1 -1.224647e-16 1.224647e-16 -1 488.5677 632.7434)" style="fill:#E0E0E0;" width="18.677" height="132.053"/>
			
				<rect x="393.051" y="250.345" transform="matrix(-1 -1.224647e-16 1.224647e-16 -1 804.7804 632.7434)" style="fill:#E0E0E0;" width="18.678" height="132.053"/>
			
				<rect x="234.945" y="287.215" transform="matrix(-1 -1.224647e-16 1.224647e-16 -1 682.9658 587.032)" style="fill:#EBEBEB;" width="213.076" height="12.603"/>
			
				<rect x="234.945" y="287.215" transform="matrix(-1 -1.224647e-16 1.224647e-16 -1 524.8594 587.032)" style="fill:#E0E0E0;" width="54.969" height="12.603"/>
			
				<rect x="234.945" y="336.687" transform="matrix(-1 -1.224647e-16 1.224647e-16 -1 682.9658 685.9772)" style="fill:#EBEBEB;" width="213.076" height="12.603"/>
			
				<rect x="234.945" y="336.687" transform="matrix(-1 -1.224647e-16 1.224647e-16 -1 524.8594 685.9772)" style="fill:#E0E0E0;" width="54.969" height="12.603"/>
			
				<rect x="271.237" y="250.345" transform="matrix(-1 -1.224647e-16 1.224647e-16 -1 561.1511 632.7434)" style="fill:#E0E0E0;" width="18.677" height="132.053"/>
		</g>
		<g>
			<g>
				<g>
					<rect x="56.781" y="247.481" style="fill:#F0F0F0;" width="16.854" height="130.381"/>
					<rect x="59.116" y="377.862" style="fill:#E6E6E6;" width="130.968" height="4.536"/>
					
						<rect x="73.634" y="247.481" transform="matrix(-1 -1.224647e-16 1.224647e-16 -1 266.0535 625.3436)" style="fill:#FAFAFA;" width="118.785" height="130.381"/>
					<path style="fill:#FFFFFF;" d="M91.633,327.818h82.788c2.411,0,4.365-1.954,4.365-4.365v-22.6c0-2.411-1.954-4.365-4.365-4.365
						H91.633c-2.411,0-4.365,1.954-4.365,4.365v22.6C87.267,325.864,89.222,327.818,91.633,327.818z"/>
					<path style="fill:#FFFFFF;" d="M91.633,368.144h82.788c2.411,0,4.365-1.954,4.365-4.365v-22.6c0-2.411-1.954-4.365-4.365-4.365
						H91.633c-2.411,0-4.365,1.954-4.365,4.365v22.6C87.267,366.189,89.222,368.144,91.633,368.144z"/>
					<path style="fill:#FAFAFA;" d="M139.669,301.902h-13.284c-1.357,0-2.467-1.11-2.467-2.467v-1.83
						c0-1.357,1.11-2.467,2.467-2.467h13.284c1.357,0,2.467,1.11,2.467,2.467v1.83C142.135,300.792,141.025,301.902,139.669,301.902
						z"/>
					<path style="fill:#FFFFFF;" d="M91.633,287.492h82.788c2.411,0,4.365-1.954,4.365-4.365v-22.6c0-2.411-1.954-4.365-4.365-4.365
						H91.633c-2.411,0-4.365,1.954-4.365,4.365v22.6C87.267,285.538,89.222,287.492,91.633,287.492z"/>
					<path style="fill:#FAFAFA;" d="M139.669,261.576h-13.284c-1.357,0-2.467-1.11-2.467-2.467v-1.83
						c0-1.357,1.11-2.467,2.467-2.467h13.284c1.357,0,2.467,1.11,2.467,2.467v1.83C142.135,260.466,141.025,261.576,139.669,261.576
						z"/>
					<path style="fill:#FAFAFA;" d="M139.669,342.228h-13.284c-1.357,0-2.467-1.11-2.467-2.467v-1.83
						c0-1.357,1.11-2.467,2.467-2.467h13.284c1.357,0,2.467,1.11,2.467,2.467v1.83C142.135,341.117,141.025,342.228,139.669,342.228
						z"/>
				</g>
				<rect x="73.634" y="243.26" style="fill:#F0F0F0;" width="121.862" height="4.221"/>
				
					<rect x="53.478" y="243.26" transform="matrix(-1 -1.224647e-16 1.224647e-16 -1 127.1123 490.7418)" style="fill:#E6E6E6;" width="20.157" height="4.221"/>
			</g>
			<g>
				<polygon style="fill:#E6E6E6;" points="73.903,201.447 146.493,201.447 152.335,241.07 79.745,241.07 				"/>
				<polygon style="fill:#E6E6E6;" points="79.745,241.07 79.78,243.26 152.373,243.26 152.338,241.07 				"/>
				<polygon style="fill:#F0F0F0;" points="76.137,201.447 148.727,201.447 154.569,241.07 81.979,241.07 				"/>
				<polygon style="fill:#FFFFFF;" points="83.728,239.26 78.42,203.258 146.977,203.258 152.286,239.26 				"/>
				<polygon style="fill:#F0F0F0;" points="100.893,241.07 100.928,243.26 180.865,243.26 180.83,241.07 				"/>
			</g>
		</g>
	</g>
</g>
<g id="Background_Simple" style="display:none;">
	<g style="display:inline;">
		<path style="fill:#407BFF;" d="M291.35,134.18c-36.816-33.826-56.286-67.784-117.059-64.653
			c-41.02,2.113-86.862,22.519-103.637,57.33c-30.347,62.973-3.189,195.551,94.779,194.229
			c47.876-0.646,83.842-22.284,134.241-14.961c50.254,7.302,93.855,11.675,127.959-33.757c21.843-29.099,25.809-74.499-6.551-96.854
			C381.96,148.489,332.72,172.19,291.35,134.18z"/>
		<path style="opacity:0.9;fill:#FFFFFF;" d="M291.35,134.18c-36.816-33.826-56.286-67.784-117.059-64.653
			c-41.02,2.113-86.862,22.519-103.637,57.33c-30.347,62.973-3.189,195.551,94.779,194.229
			c47.876-0.646,83.842-22.284,134.241-14.961c50.254,7.302,93.855,11.675,127.959-33.757c21.843-29.099,25.809-74.499-6.551-96.854
			C381.96,148.489,332.72,172.19,291.35,134.18z"/>
	</g>
</g>
<g id="Shadow_1_">
	<ellipse id="_x3C_Path_x3E__273_" style="fill:#F5F5F5;" cx="250" cy="416.238" rx="193.889" ry="11.323"/>
</g>
<g id="Character_1_">
	<g>
		<path style="fill:#263238;" d="M115.007,99.366c0.779-6.493,11.048-11.602,19.875-8.538c10.184,3.535,8.572,12.867,15.301,13.227
			c6.729,0.361,10.096,12.292,4.204,17.81s4.93,8.044,5.291,15.74c0.361,7.696,0.396,13.751,6.734,19.48
			c7.983,7.217-4.329,30.474-24.584,19.841c-18.143-9.524-40.862,4.179-44.928-9.048c-3.51-11.416,13.714-23.809,10.107-29.341
			c-3.607-5.531-1.202-10.733,2.889-17.416C114.91,112.923,102.564,100.689,115.007,99.366z"/>
		<path style="fill:#CE7A63;" d="M155.378,153.264c2.476,5.01,5.03,10.122,7.656,15.071c1.333,2.469,2.691,4.914,4.085,7.281
			c1.4,2.337,2.884,4.683,4.372,6.493l0.326,0.394c0.056,0.059,0.115,0.128,0.215,0.191c0.182,0.135,0.468,0.274,0.844,0.399
			c0.756,0.251,1.843,0.367,3.002,0.347c2.342-0.048,4.985-0.502,7.591-1.163c2.626-0.642,5.27-1.479,7.906-2.393
			c2.633-0.895,5.292-1.94,7.839-2.978l2.319,4.219c-5.008,3.26-10.168,6.02-15.887,8.164c-2.875,1.023-5.848,1.961-9.244,2.303
			c-1.701,0.16-3.52,0.204-5.559-0.226c-1.017-0.218-2.089-0.585-3.15-1.17c-0.529-0.284-1.051-0.643-1.544-1.045
			c-0.251-0.193-0.48-0.426-0.714-0.645l-0.474-0.49c-2.325-2.489-4.039-4.942-5.707-7.452c-1.662-2.495-3.177-5.025-4.625-7.579
			c-2.922-5.106-5.583-10.233-8.05-15.589L155.378,153.264z"/>
		<path style="fill:#407BFF;" d="M149.512,144.007c4.04-0.141,11.193,14.566,11.193,14.566l-10.522,12.766
			c0,0-12.28-15.4-10.595-20.38C141.342,145.773,143.616,144.213,149.512,144.007z"/>
		<polygon style="opacity:0.2;" points="150.182,147.563 155.649,164.712 150.721,170.676 		"/>
		<path style="fill:#CE7A63;" d="M206.119,173.559l-9.67,4.626l-0.178,3.41c2.793,2.796,8.637,1.033,8.637,1.033l7.161-0.931
			l0.924-4.049c0.516-2.131-1.031-4.208-3.22-4.324l-1.956-0.104C207.231,173.19,206.648,173.306,206.119,173.559z"/>
		<polygon style="fill:#CE7A63;" points="129.969,408.173 139.475,408.173 140.338,386.159 130.832,386.159 		"/>
		<path style="fill:#263238;" d="M140.357,407.073l-10.68,0c-0.389,0-0.677,0.27-0.693,0.649l-0.363,8.45
			c-0.038,0.876,0.8,1.706,1.695,1.69c3.717-0.064,5.489-0.283,10.186-0.283c2.889,0,9.539,0.3,13.529,0.3
			c3.902,0,3.804-3.945,2.107-4.303c-7.611-1.602-11.409-3.812-14.132-5.92C141.514,407.277,140.925,407.073,140.357,407.073z"/>
		<g style="opacity:0.2;">
			<polygon points="140.336,386.165 139.893,397.512 130.383,397.512 130.826,386.165 			"/>
		</g>
		<path style="fill:#407BFF;" d="M153.323,148.722c0.21,6.013-0.832,20.045-7.15,52.726l-38.591-1.148
			c1.115-15.687,1.421-25.371-5.127-57.827c0,0,8.138-1.518,16.451-1.672c6.503-0.12,11.83-0.169,17.523,0.522
			c4.465,0.542,9.277,1.469,12.442,2.132C151.391,143.982,153.233,146.15,153.323,148.722z"/>
		<path style="fill:#CE7A63;" d="M121.23,121.121c0.938,5.671,1.734,16.035-2.323,19.68c0,0,3.751,7.022,13.383,9.551
			c8.892-4.509,4.14-9.029,4.14-9.029c-6.243-1.688-5.942-6.348-4.716-10.697L121.23,121.121z"/>
		<g>
			<polygon style="fill:#E0E0E0;" points="132.29,150.352 131.14,148.097 124.962,149.495 			"/>
			<path style="fill:#FFFFFF;" d="M131.14,148.097c-1.984-0.902-11.168-6.884-11.529-8.748c-1.611,0-4.604,1.022-4.604,1.022
				s1.17,6.757,8.385,14.535C125.249,150.667,127.72,148.819,131.14,148.097z"/>
			<polygon style="fill:#E0E0E0;" points="132.29,150.352 132.808,148.097 136.596,148.368 			"/>
			<path style="fill:#FFFFFF;" d="M132.808,148.097c3.066-2.029,2.315-6.283,2.016-8.147c1.771,0.165,4.604,1.022,4.604,1.022
				s4.976,6.118,0.467,13.934C138.408,150.893,135.882,149.45,132.808,148.097z"/>
		</g>
		<path style="opacity:0.2;" d="M125.504,124.999l6.205,5.622c-0.294,1.029-0.529,2.074-0.633,3.094
			c-2.392-0.419-5.613-3.153-5.793-5.676C125.194,126.781,125.282,125.577,125.504,124.999z"/>
		<path style="fill:#CE7A63;" d="M118.235,109.078c0.416,9.425,0.391,13.424,5.064,18.338c7.028,7.392,18.514,4.819,20.922-4.54
			c2.167-8.425,1.122-22.423-8.029-26.328C127.175,92.7,117.819,99.652,118.235,109.078z"/>
		<path style="fill:#263238;" d="M116.928,98.825c3.487,1.744,8.297,1.443,9.199,3.547c0.902,2.104-1.623,14.67-6.854,14.731
			C114.463,110.609,113.742,101.831,116.928,98.825z"/>
		<path style="fill:#263238;" d="M117.409,100.388c7.696,4.87,33.084,9.424,24.786-1.563
			C135.897,90.484,119.333,94.676,117.409,100.388z"/>
		<path style="fill:#263238;" d="M146.258,201.447c0,0,3.733,70.228,3.924,99.096c0.2,30.027-8.255,94.772-8.255,94.772h-12.854
			c0,0,2.444-65.455,0.467-95.072c-2.155-32.288-9.665-99.636-9.665-99.636L146.258,201.447z"/>
		<polygon style="fill:#407BFF;" points="128.005,395.776 143.087,395.776 143.708,390.965 126.759,390.376 		"/>
		<path style="opacity:0.2;" d="M122.594,225.827c1.384-1.732,3.206-0.833,5.587,4.102c8.118,16.84,3.992,43.712,0.523,59.188
			C127.138,269.853,124.563,244.464,122.594,225.827z"/>
		<path style="fill:#263238;" d="M133.847,112.654c-0.013,0.767,0.382,1.395,0.883,1.404c0.501,0.009,0.918-0.606,0.931-1.372
			c0.013-0.767-0.382-1.395-0.883-1.404C134.277,111.273,133.86,111.888,133.847,112.654z"/>
		<path style="fill:#263238;" d="M142.505,112.585c-0.013,0.767,0.382,1.395,0.883,1.404c0.501,0.009,0.918-0.606,0.931-1.373
			c0.013-0.767-0.382-1.395-0.884-1.404C142.935,111.204,142.518,111.818,142.505,112.585z"/>
		<path style="fill:#263238;" d="M143.214,111.251l1.85-0.499C145.065,110.752,144.095,112.174,143.214,111.251z"/>
		<path style="fill:#BA4D3C;" d="M139.178,113.32c0,0,1.244,3.323,2.649,4.94c-1.028,0.927-2.742,0.466-2.742,0.466L139.178,113.32z
			"/>
		<path style="fill:#263238;" d="M134.852,121.656c0.352,0.06,0.728,0.097,1.128,0.104c0.124,0.002,0.227-0.097,0.229-0.221
			c0.002-0.125-0.107-0.227-0.221-0.229c-3.375-0.059-4.896-2.435-4.911-2.459c-0.066-0.105-0.204-0.137-0.311-0.071
			c-0.105,0.066-0.137,0.205-0.071,0.31C130.756,119.185,132.035,121.172,134.852,121.656z"/>
		<path style="fill:#CE7A63;" d="M115.535,117.667c0.638,1.849,2.07,3.231,3.526,3.911c2.191,1.023,3.68-0.84,3.402-3.114
			c-0.251-2.047-1.692-5.045-4.05-5.115C116.091,113.279,114.806,115.553,115.535,117.667z"/>
		<path style="fill:#263238;" d="M130.359,110.124c0.187,0.032,0.381-0.057,0.475-0.234c0.972-1.843,3.629-2.208,3.656-2.211
			c0.247-0.032,0.421-0.258,0.389-0.504c-0.031-0.246-0.256-0.421-0.505-0.389c-0.128,0.017-3.149,0.433-4.336,2.684
			c-0.116,0.22-0.032,0.492,0.188,0.608C130.268,110.101,130.314,110.116,130.359,110.124z"/>
		<path style="fill:#263238;" d="M145.145,108.14c0.152,0.026,0.312-0.026,0.419-0.151c0.161-0.189,0.139-0.473-0.05-0.635
			c-1.894-1.616-3.896-1.053-3.98-1.028c-0.239,0.07-0.375,0.321-0.305,0.559c0.07,0.237,0.319,0.374,0.557,0.305l0,0
			c0.066-0.019,1.63-0.443,3.142,0.848C144.993,108.093,145.068,108.126,145.145,108.14z"/>
		<path style="fill:#CE7A63;" d="M106.34,157.357c-2.742,3.922-5.497,8.117-8.065,12.266c-2.559,4.175-5.005,8.419-7.043,12.733
			l-0.382,0.809l-0.191,0.405c-0.049,0.103-0.016,0.034-0.023,0.04c0.002-0.007-0.003-0.023-0.003-0.023
			c-0.016-0.027-0.088,0.149-0.09,0.459c-0.027,0.62,0.119,1.597,0.392,2.59c0.558,2.016,1.463,4.22,2.49,6.372
			c2.058,4.324,4.543,8.699,7.063,12.922l-3.79,2.968c-3.611-3.807-6.848-7.796-9.746-12.283c-1.418-2.266-2.789-4.601-3.843-7.379
			c-0.516-1.403-1.003-2.898-1.158-4.807c-0.067-0.95-0.039-2.051,0.29-3.294c0.035-0.15,0.094-0.316,0.145-0.473l0.144-0.403
			l0.181-0.467l0.363-0.933c0.957-2.498,2.057-4.897,3.218-7.251c1.141-2.368,2.407-4.646,3.686-6.914
			c2.614-4.528,5.371-8.816,8.536-13.095L106.34,157.357z"/>
		<path style="fill:#407BFF;" d="M102.455,142.472c-3.901,1.061-8.941,14.236-8.941,14.236l14.681,11.171
			c0,0,5.801-10.951,4.325-15.997C110.983,146.627,106.907,141.262,102.455,142.472z"/>
		<path style="fill:#407BFF;" d="M144.093,408.734c0.946,0,1.802-0.146,2.247-0.585c0.282-0.279,0.381-0.648,0.296-1.096
			c-0.051-0.268-0.204-0.475-0.443-0.599c-1.228-0.638-4.823,1.297-5.228,1.52c-0.081,0.044-0.119,0.137-0.096,0.232
			c0.023,0.094,0.102,0.17,0.198,0.189C141.891,408.554,143.046,408.734,144.093,408.734z M145.589,406.767
			c0.175,0,0.32,0.025,0.428,0.082c0.098,0.051,0.152,0.126,0.174,0.244c0.059,0.304-0.003,0.54-0.186,0.721
			c-0.524,0.518-2.079,0.609-4.222,0.259C143.025,407.447,144.689,406.767,145.589,406.767z"/>
		<path style="fill:#407BFF;" d="M141.111,408.398c0.032,0,0.062-0.007,0.09-0.02c1.082-0.512,3.116-2.562,2.832-3.639
			c-0.067-0.255-0.28-0.573-0.91-0.636c-0.465-0.047-0.872,0.084-1.207,0.389c-1.095,0.995-1.056,3.554-1.054,3.663
			c0.002,0.079,0.045,0.156,0.115,0.202C141.019,408.384,141.066,408.398,141.111,408.398z M142.987,404.545
			c0.044,0,0.09,0.002,0.136,0.007c0.415,0.042,0.458,0.206,0.473,0.26c0.171,0.647-1.188,2.259-2.272,2.959
			c0.036-0.745,0.197-2.28,0.915-2.933C142.456,404.641,142.702,404.545,142.987,404.545z"/>
		<polygon style="fill:#CE7A63;" points="90.121,408.173 99.628,408.173 102.789,386.159 93.283,386.159 		"/>
		<path style="fill:#263238;" d="M99.976,407.073l-10.68,0c-0.389,0-0.707,0.27-0.767,0.649l-1.323,8.45
			c-0.137,0.876,0.606,1.706,1.503,1.69c3.724-0.064,5.521-0.283,10.218-0.283c2.889,0,5.252,0.3,9.242,0.3
			c3.903,0,4.252-3.945,2.595-4.303c-7.429-1.602-6.724-3.812-9.207-5.92C101.11,407.277,100.545,407.073,99.976,407.073z"/>
		<path style="fill:#407BFF;" d="M101.503,408.734c0.946,0,1.819-0.146,2.313-0.585c0.314-0.279,0.455-0.648,0.42-1.096
			c-0.021-0.268-0.15-0.475-0.375-0.599c-1.156-0.638-4.971,1.297-5.401,1.52c-0.086,0.044-0.134,0.137-0.122,0.232
			c0.012,0.094,0.083,0.17,0.177,0.189C99.321,408.554,100.455,408.734,101.503,408.734z M103.221,406.767
			c0.175,0,0.317,0.025,0.419,0.082c0.092,0.051,0.137,0.126,0.146,0.244c0.024,0.304-0.064,0.54-0.268,0.721
			c-0.583,0.518-2.148,0.609-4.251,0.259C100.58,407.447,102.321,406.767,103.221,406.767z"/>
		<path style="fill:#407BFF;" d="M98.559,408.398c0.032,0,0.063-0.007,0.093-0.02c1.14-0.512,3.407-2.562,3.245-3.639
			c-0.038-0.255-0.215-0.573-0.838-0.636c-0.46-0.047-0.882,0.084-1.252,0.389c-1.208,0.995-1.459,3.554-1.47,3.663
			c-0.007,0.079,0.027,0.156,0.092,0.202C98.468,408.384,98.513,408.398,98.559,408.398z M100.872,404.545
			c0.044,0,0.09,0.002,0.135,0.007c0.41,0.042,0.435,0.206,0.444,0.26c0.097,0.647-1.445,2.259-2.608,2.959
			c0.121-0.745,0.456-2.28,1.249-2.933C100.33,404.641,100.587,404.545,100.872,404.545z"/>
		<g style="opacity:0.2;">
			<polygon points="102.787,386.165 101.159,397.512 91.648,397.512 93.277,386.165 			"/>
		</g>
		<path style="fill:#263238;" d="M107.582,200.3c-9.258,14.716-6.675,68.842-8.137,97.738c-1.52,30.057-8.959,97.277-8.959,97.277
			h12.854c0,0,12.342-68.424,18.092-97.431c6.348-32.02,14.073-97.584,14.073-97.584S117.914,200.3,107.582,200.3z"/>
		<polygon style="fill:#407BFF;" points="89.627,395.776 104.709,395.776 105.25,390.965 88.291,390.376 		"/>
		<path style="fill:#263238;" d="M134.556,111.321l1.851-0.499C136.406,110.821,135.437,112.243,134.556,111.321z"/>
		<path style="fill:#407BFF;" d="M107.072,198.018l-1.09,3.425c-0.143,0.264,0.166,0.547,0.613,0.56l39.717,1.181
			c0.348,0.01,0.641-0.152,0.67-0.37l0.451-3.444c0.031-0.239-0.264-0.45-0.645-0.462l-39.079-1.162
			C107.422,197.738,107.164,197.848,107.072,198.018z"/>
		<g>
			<path style="fill:#263238;" d="M112.19,202.544l-1.047-0.031c-0.208-0.006-0.364-0.118-0.346-0.249l0.624-4.473
				c0.018-0.131,0.204-0.233,0.412-0.227l1.047,0.031c0.208,0.006,0.364,0.118,0.346,0.249l-0.624,4.473
				C112.584,202.448,112.399,202.55,112.19,202.544z"/>
			<path style="fill:#263238;" d="M143.36,203.471l-1.047-0.031c-0.208-0.006-0.364-0.118-0.346-0.249l0.624-4.473
				c0.018-0.131,0.204-0.233,0.412-0.227l1.047,0.031c0.208,0.006,0.364,0.118,0.346,0.249l-0.624,4.473
				C143.754,203.375,143.568,203.477,143.36,203.471z"/>
			<path style="fill:#263238;" d="M127.775,203.007l-1.047-0.031c-0.209-0.006-0.364-0.118-0.346-0.249l0.624-4.473
				c0.018-0.131,0.204-0.233,0.412-0.227l1.047,0.031c0.208,0.006,0.364,0.118,0.346,0.249l-0.624,4.473
				C128.169,202.911,127.983,203.013,127.775,203.007z"/>
		</g>
		<path style="fill:#CE7A63;" d="M97.384,203.427l10.121,1.742l-7.394,6.228c0.102,0.063-5.613-2.142-6.186-6.115L97.384,203.427z"
			/>
		<path style="fill:#CE7A63;" d="M110.344,212.997l-2.234,1.684c-1.016,0.766-2.413,0.778-3.442,0.03l-4.557-3.314l7.394-6.227
			l3.241,3.576C111.888,210.005,111.702,211.973,110.344,212.997z"/>
	</g>
</g>
<g id="Maker_launch">
	<g>
		<g>
			<g>
				<g>
					<path style="fill:#FFFFFF;" d="M400.622,344.456H156.244c-4.893,0-8.897-4.004-8.897-8.897V190.552
						c0-4.893,4.003-8.897,8.897-8.897h244.378c4.893,0,8.897,4.004,8.897,8.897v145.007
						C409.518,340.452,405.515,344.456,400.622,344.456z"/>
					<path style="fill:#407BFF;" d="M400.622,344.963H156.244c-5.185,0-9.403-4.219-9.403-9.403V190.553
						c0-5.186,4.218-9.404,9.403-9.404h244.378c5.185,0,9.404,4.219,9.404,9.404V335.56
						C410.025,340.744,405.807,344.963,400.622,344.963z M156.244,182.162c-4.626,0-8.39,3.764-8.39,8.391V335.56
						c0,4.626,3.764,8.39,8.39,8.39h244.378c4.626,0,8.39-3.764,8.39-8.39V190.553c0-4.627-3.764-8.391-8.39-8.391H156.244z"/>
				</g>
				<g>
					<path style="fill:#FFFFFF;" d="M406.315,344.456H150.55c-2.034,0-3.968,0.885-5.298,2.424l-9.443,10.926
						c-3.921,4.537-0.698,11.582,5.298,11.582h274.651c5.996,0,9.219-7.045,5.298-11.582l-9.443-10.926
						C410.283,345.34,408.349,344.456,406.315,344.456z"/>
					<path style="fill:#407BFF;" d="M415.758,369.895H141.107c-2.975,0-5.591-1.681-6.829-4.386
						c-1.237-2.705-0.798-5.783,1.147-8.034l9.443-10.926c1.427-1.652,3.498-2.6,5.681-2.6h255.765c2.183,0,4.254,0.947,5.682,2.6
						l9.443,10.926c1.945,2.251,2.385,5.329,1.147,8.034C421.35,368.214,418.733,369.895,415.758,369.895z M150.55,344.963
						c-1.888,0-3.68,0.819-4.915,2.248l-9.443,10.926c-1.683,1.947-2.063,4.61-0.992,6.951c1.07,2.34,3.334,3.793,5.907,3.793
						h274.651c2.573,0,4.837-1.453,5.907-3.793c1.071-2.341,0.69-5.004-0.992-6.951l-9.443-10.926
						c-1.235-1.429-3.026-2.248-4.915-2.248H150.55z"/>
				</g>
				<path style="fill:#407BFF;" d="M138.641,362.293c-2.919,0-4.231,3.655-1.984,5.518c1.17,0.971,2.689,1.577,4.445,1.577h274.652
					c1.87,0,3.47-0.683,4.668-1.762c2.071-1.864,0.607-5.333-2.18-5.333H138.641z"/>
				<path style="fill:#407BFF;" d="M156.243,339.388c-2.111,0-3.829-1.717-3.829-3.829V190.552c0-2.111,1.717-3.829,3.829-3.829
					h244.378c2.111,0,3.829,1.718,3.829,3.829v145.007c0,2.111-1.718,3.829-3.829,3.829H156.243z"/>
				<path style="opacity:0.3;fill:#FFFFFF;" d="M398.688,336.638h-240.51c-1.662,0-3.013-1.352-3.013-3.013V192.487
					c0-1.662,1.353-3.015,3.015-3.015h240.507c1.662,0,3.014,1.352,3.014,3.014v141.139
					C401.701,335.286,400.349,336.638,398.688,336.638z M158.18,189.973c-1.387,0-2.515,1.128-2.515,2.515v141.138
					c0,1.386,1.128,2.513,2.513,2.513h240.51c1.386,0,2.513-1.127,2.513-2.513V192.486c0-1.386-1.128-2.514-2.514-2.514H158.18z"/>
			</g>
			<g>
				<g>
					<path style="fill:#407BFF;" d="M317.282,242.817c0,4.961,48.401,4.961,48.401,0C365.683,215.07,317.283,215.07,317.282,242.817
						z"/>
					<path style="fill:#FFFFFF;" d="M341.482,247.079c-6.363,0-12.298-0.332-16.711-0.935c-7.198-0.984-8.03-2.37-8.03-3.327
						c0-14.669,12.826-21.352,24.742-21.352c0,0-0.001,0,0,0c11.917,0,24.741,6.682,24.741,21.352
						C366.224,246.874,345.614,247.079,341.482,247.079z M317.823,242.817c0,1.333,8.222,3.18,23.659,3.18
						c15.438,0,23.66-1.847,23.66-3.18c0-13.926-12.264-20.27-23.659-20.27C330.088,222.548,317.824,228.891,317.823,242.817
						L317.823,242.817z"/>
				</g>
				<g>
					<path style="fill:#FFFFFF;" d="M369.668,180.026c3.746,7.849,8.128,26.036,8.813,40.41c0.11,2.318-2.379,3.901-4.419,2.795
						c-1.317-0.714-2.535-1.056-3.528-1.208c-1.452-0.222-2.563-2.257-2.595-4.701l-0.474-35.97
						C367.439,179.363,368.927,178.473,369.668,180.026z"/>
					<path style="fill:#407BFF;" d="M375.472,224.1c-0.565,0-1.129-0.141-1.651-0.424c-1.087-0.589-2.219-0.977-3.363-1.152
						c-1.716-0.263-2.989-2.447-3.025-5.194l-0.475-35.971c-0.018-1.323,0.583-2.391,1.46-2.596
						c0.681-0.157,1.319,0.232,1.708,1.045v0.001c3.716,7.787,8.163,25.961,8.861,40.603c0.061,1.28-0.556,2.455-1.651,3.143
						C376.758,223.917,376.115,224.1,375.472,224.1z M368.704,179.743c-0.019,0-0.037,0.002-0.056,0.007
						c-0.281,0.065-0.69,0.617-0.677,1.595l0.475,35.971c0.029,2.178,0.98,4.025,2.165,4.206c1.26,0.193,2.503,0.618,3.693,1.264
						c0.791,0.427,1.723,0.395,2.494-0.09c0.781-0.49,1.221-1.326,1.177-2.235c-0.692-14.521-5.09-32.517-8.764-40.216v0.001
						C369.152,180.121,368.951,179.743,368.704,179.743z"/>
				</g>
				<g>
					<path style="fill:#FFFFFF;" d="M370.373,227.464c0,7.153-57.785,7.153-57.785,0v-79.642c0-17.03,3.74-33.923,11.473-49.096
						c4.804-9.427,10.812-17.365,17.42-17.365c6.608,0,12.616,7.938,17.42,17.365c7.733,15.173,11.473,32.067,11.473,49.096V227.464
						z"/>
					<path style="fill:#407BFF;" d="M341.48,233.336c-7.596,0-14.68-0.48-19.946-1.349c-6.361-1.05-9.453-2.529-9.453-4.523v-79.642
						c0-17.472,3.986-34.528,11.528-49.327c5.966-11.706,11.979-17.642,17.872-17.642c5.893,0,11.905,5.936,17.872,17.642
						c7.542,14.799,11.528,31.855,11.528,49.327l-0.001,79.642h-0.507h0.507C370.879,233.171,344.489,233.336,341.48,233.336z
						 M341.48,81.867c-5.48,0-11.19,5.749-16.968,17.089c-7.469,14.656-11.417,31.554-11.417,48.866v79.642
						c0,2.725,12.468,4.858,28.386,4.858c15.917,0,28.386-2.134,28.386-4.858l0.001-79.642c0-17.313-3.948-34.21-11.418-48.866
						C352.669,87.616,346.96,81.867,341.48,81.867z"/>
				</g>
				<path style="fill:#407BFF;" d="M341.48,119.816c-9.32,0-17.888-2.541-23.506-6.97l0.628-0.797
					c5.363,4.229,13.915,6.753,22.878,6.753s17.516-2.524,22.878-6.753l0.628,0.797C359.368,117.275,350.8,119.816,341.48,119.816z"
					/>
				<g>
					<path style="fill:#FFFFFF;" d="M314.486,180.027c-6.452,8.061-14.029,27.025-14.859,41.564
						c-0.129,2.264,2.22,3.898,4.267,2.922c3.416-1.63,6.687-2.266,9.14-2.49c2.434-0.222,4.298-2.257,4.352-4.701l0.796-35.97
						C318.226,179.363,315.729,178.473,314.486,180.027z"/>
					<path style="fill:#407BFF;" d="M302.632,225.308c-0.676,0-1.349-0.202-1.941-0.6c-1.055-0.709-1.643-1.885-1.57-3.146
						c0.84-14.689,8.563-33.847,14.97-41.851l0,0c0.707-0.885,1.848-1.209,2.909-0.821c1.051,0.382,1.713,1.354,1.689,2.475
						l-0.795,35.97c-0.061,2.717-2.13,4.95-4.814,5.194c-3.161,0.289-6.178,1.111-8.968,2.442
						C303.639,225.196,303.134,225.308,302.632,225.308z M314.881,180.343c-6.31,7.886-13.92,26.777-14.749,41.277
						c-0.051,0.899,0.369,1.739,1.124,2.247c0.732,0.491,1.636,0.561,2.419,0.188c2.898-1.384,6.031-2.237,9.312-2.538
						c2.17-0.197,3.843-2.006,3.892-4.206l0.795-35.97c0.019-0.826-0.516-1.316-1.022-1.501
						C316.14,179.654,315.405,179.689,314.881,180.343L314.881,180.343z"/>
				</g>
				<ellipse style="fill:#407BFF;" cx="350.688" cy="157.974" rx="16.777" ry="24.018"/>
				<ellipse style="fill:#FFFFFF;" cx="352.275" cy="157.974" rx="12.927" ry="20.098"/>
			</g>
			<path style="fill:#FFFFFF;" d="M203.956,339.929c-0.299,0-0.541-0.242-0.541-0.541c0-0.522-0.02-1.163-0.042-1.899
				c-0.17-5.625-0.523-17.33,6.683-24.043c4.39-4.09,10.933-5.727,19.447-4.863c26.728,2.703,41.617-4.698,53.098-26.41
				c5.096-9.638,16.162-10.98,25.926-12.164c7.47-0.906,14.525-1.762,17.704-6.168c1.942-2.692,2.364-6.568,1.292-11.852
				c-0.06-0.293,0.13-0.578,0.423-0.638c0.29-0.064,0.578,0.129,0.638,0.423c1.136,5.595,0.653,9.749-1.475,12.699
				c-3.456,4.791-10.74,5.674-18.451,6.609c-9.964,1.209-20.268,2.458-25.099,11.596c-11.726,22.176-26.917,29.742-54.165,26.98
				c-8.191-0.832-14.449,0.71-18.6,4.579c-6.847,6.378-6.504,17.752-6.339,23.219c0.022,0.748,0.042,1.4,0.042,1.932
				C204.497,339.686,204.254,339.929,203.956,339.929z"/>
			<path style="fill:#FFFFFF;" d="M321.992,339.929c-0.295,0-0.536-0.236-0.541-0.532l-0.009-0.567
				c-0.168-9.963-0.399-23.607,14.744-25.557c8.977-1.154,14.289-3.321,16.24-6.624c1.985-3.362,0.279-7.686-1.371-11.867
				c-1.436-3.637-2.919-7.398-1.971-10.587c1.998-6.723,5.139-10.315,7.663-13.203c4.063-4.648,6.301-7.209-1.512-18.808
				c-0.167-0.248-0.102-0.585,0.146-0.752c0.247-0.167,0.584-0.1,0.751,0.146c8.278,12.289,5.7,15.238,1.43,20.125
				c-2.455,2.809-5.509,6.304-7.44,12.8c-0.841,2.831,0.51,6.255,1.94,9.881c1.746,4.423,3.551,8.997,1.296,12.814
				c-2.132,3.609-7.704,5.947-17.034,7.148c-14.183,1.824-13.961,14.909-13.8,24.464l0.009,0.568
				c0.005,0.299-0.233,0.545-0.532,0.55C321.998,339.929,321.995,339.929,321.992,339.929z"/>
		</g>
		<g>
			<path style="fill:#FFFFFF;" d="M210.034,232.139c-0.114-0.006-0.226,0.001-0.339,0.001c-1.377-3.455-4.669-5.971-8.626-6.163
				c-1.023-0.05-2.018,0.06-2.959,0.307c-1.461-3.438-4.788-5.923-8.769-6.116c-5.241-0.254-9.737,3.554-10.441,8.654
				c-4.09,0.083-7.476,3.313-7.677,7.461c-0.21,4.331,3.13,8.013,7.462,8.223l30.678,1.489c3.826,0.186,7.078-2.765,7.264-6.591
				C216.811,235.576,213.859,232.324,210.034,232.139z"/>
			<g>
				<path style="fill:#FFFFFF;" d="M254.252,200.222L254.252,200.222c3.188,0,6.304,1.287,8.548,3.531
					c3.892,3.892,4.634,9.853,1.934,14.544l-9.611-6.73l-4.958-10.633C251.473,200.462,252.843,200.222,254.252,200.222
					 M254.252,199.14c-1.879,0-3.772,0.401-5.545,1.228l5.559,11.92l10.774,7.544c3.646-5.207,3.021-12.349-1.474-16.844
					C261.048,200.471,257.673,199.14,254.252,199.14L254.252,199.14z"/>
				<path style="fill:#FFFFFF;" d="M254.265,212.288l10.774,7.544c-0.439,0.627-0.932,1.215-1.474,1.756
					c-5.102,5.102-13.499,5.102-18.6,0c-5.102-5.102-5.102-13.499,0-18.6c1.085-1.085,2.351-1.972,3.742-2.62L254.265,212.288z"/>
			</g>
			<g>
				<path style="fill:#FFFFFF;" d="M218.93,293.795c-0.684,0-1.349-0.213-1.915-0.619c-0.715-0.514-1.187-1.274-1.329-2.143
					l-3.54-21.604c-0.293-1.793,0.926-3.491,2.719-3.785l35.921-5.884c0.87-0.141,1.74,0.063,2.455,0.576
					c0.714,0.514,1.186,1.275,1.329,2.143l3.539,21.604c0.293,1.793-0.926,3.491-2.719,3.785l0,0l-35.921,5.884
					C219.29,293.78,219.109,293.795,218.93,293.795z M251.325,260.798c-0.121,0-0.242,0.01-0.363,0.03l-35.921,5.884
					c-1.204,0.197-2.023,1.338-1.826,2.542l3.54,21.603c0.095,0.583,0.412,1.094,0.892,1.439c0.48,0.346,1.065,0.487,1.649,0.387
					l35.921-5.884c1.204-0.197,2.023-1.338,1.826-2.542l-3.539-21.603c-0.096-0.584-0.413-1.095-0.893-1.439
					C252.23,260.941,251.784,260.798,251.325,260.798z M255.304,287.333h0.01H255.304z"/>
				<polygon style="fill:#FFFFFF;" points="241.744,275.672 229.599,271.083 231.698,283.896 				"/>
			</g>
			<g>
				<rect x="382.496" y="258.237" style="fill:#FFFFFF;" width="7.287" height="21.936"/>
				<rect x="382.496" y="281.708" style="fill:#FFFFFF;" width="7.287" height="4.129"/>
				<rect x="382.496" y="288.35" style="fill:#FFFFFF;" width="7.287" height="2.065"/>
				<rect x="382.496" y="294.184" style="fill:#FFFFFF;" width="7.287" height="1.032"/>
				<g>
					<polygon style="fill:#FFFFFF;" points="378.869,260.258 386.139,247.668 393.409,260.258 					"/>
				</g>
			</g>
			<g>
				<rect x="283.402" y="222.939" style="fill:#FFFFFF;" width="4.602" height="13.855"/>
				<rect x="283.402" y="237.762" style="fill:#FFFFFF;" width="4.602" height="2.608"/>
				<rect x="283.402" y="241.958" style="fill:#FFFFFF;" width="4.602" height="1.304"/>
				<rect x="283.402" y="245.642" style="fill:#FFFFFF;" width="4.602" height="0.652"/>
				<g>
					<polygon style="fill:#FFFFFF;" points="281.111,224.215 285.703,216.263 290.295,224.215 					"/>
				</g>
			</g>
			<g>
				<rect x="386.648" y="142.437" style="fill:#407BFF;" width="5.847" height="17.603"/>
				<rect x="386.648" y="161.271" style="fill:#407BFF;" width="5.847" height="3.314"/>
				<rect x="386.648" y="166.601" style="fill:#407BFF;" width="5.847" height="1.657"/>
				<rect x="386.648" y="171.282" style="fill:#407BFF;" width="5.847" height="0.828"/>
				<g>
					<polygon style="fill:#407BFF;" points="383.738,144.059 389.572,133.956 395.405,144.059 					"/>
				</g>
			</g>
		</g>
	</g>
</g>
</svg>
